<mxfile host="65bd71144e">
    <diagram id="Vn3XhD0t4M7LhlezhMHi" name="第 3 页">
        <mxGraphModel dx="1118" dy="517" grid="1" gridSize="10" guides="1" tooltips="1" connect="1" arrows="1" fold="1" page="1" pageScale="1" pageWidth="827" pageHeight="1169" math="0" shadow="0">
            <root>
                <mxCell id="YTe9TTDmaKj4yvlNZfYU-0"/>
                <mxCell id="YTe9TTDmaKj4yvlNZfYU-1" parent="YTe9TTDmaKj4yvlNZfYU-0"/>
                <mxCell id="YTe9TTDmaKj4yvlNZfYU-2" value="&lt;font style=&quot;font-size: 18px&quot;&gt;&lt;b&gt;文件结构&lt;/b&gt;&lt;/font&gt;" style="rounded=0;whiteSpace=wrap;html=1;" vertex="1" parent="YTe9TTDmaKj4yvlNZfYU-1">
                    <mxGeometry y="255" width="100" height="50" as="geometry"/>
                </mxCell>
                <mxCell id="YTe9TTDmaKj4yvlNZfYU-3" value="" style="shape=curlyBracket;whiteSpace=wrap;html=1;rounded=1;" vertex="1" parent="YTe9TTDmaKj4yvlNZfYU-1">
                    <mxGeometry x="106" y="40" width="20" height="480" as="geometry"/>
                </mxCell>
                <mxCell id="YTe9TTDmaKj4yvlNZfYU-4" value="&lt;font style=&quot;font-size: 18px&quot;&gt;animate&lt;/font&gt;" style="rounded=0;whiteSpace=wrap;html=1;" vertex="1" parent="YTe9TTDmaKj4yvlNZfYU-1">
                    <mxGeometry x="136" y="200" width="80" height="40" as="geometry"/>
                </mxCell>
                <mxCell id="YTe9TTDmaKj4yvlNZfYU-5" value="&lt;font style=&quot;font-size: 18px&quot;&gt;board&lt;/font&gt;" style="rounded=0;whiteSpace=wrap;html=1;" vertex="1" parent="YTe9TTDmaKj4yvlNZfYU-1">
                    <mxGeometry x="136" y="260" width="80" height="40" as="geometry"/>
                </mxCell>
                <mxCell id="YTe9TTDmaKj4yvlNZfYU-6" value="&lt;font style=&quot;font-size: 18px&quot;&gt;game&lt;/font&gt;" style="rounded=0;whiteSpace=wrap;html=1;" vertex="1" parent="YTe9TTDmaKj4yvlNZfYU-1">
                    <mxGeometry x="136" y="140" width="80" height="40" as="geometry"/>
                </mxCell>
                <mxCell id="YTe9TTDmaKj4yvlNZfYU-7" value="&lt;font style=&quot;font-size: 18px&quot;&gt;font&lt;/font&gt;" style="rounded=0;whiteSpace=wrap;html=1;" vertex="1" parent="YTe9TTDmaKj4yvlNZfYU-1">
                    <mxGeometry x="136" y="440" width="80" height="40" as="geometry"/>
                </mxCell>
                <mxCell id="YTe9TTDmaKj4yvlNZfYU-8" value="&lt;font style=&quot;font-size: 18px&quot;&gt;action.py&lt;/font&gt;" style="rounded=1;whiteSpace=wrap;html=1;" vertex="1" parent="YTe9TTDmaKj4yvlNZfYU-1">
                    <mxGeometry x="136" y="80" width="80" height="40" as="geometry"/>
                </mxCell>
                <mxCell id="YTe9TTDmaKj4yvlNZfYU-9" value="&lt;font style=&quot;font-size: 18px&quot;&gt;paly.py&lt;/font&gt;" style="rounded=1;whiteSpace=wrap;html=1;" vertex="1" parent="YTe9TTDmaKj4yvlNZfYU-1">
                    <mxGeometry x="136" y="20" width="80" height="40" as="geometry"/>
                </mxCell>
                <mxCell id="YTe9TTDmaKj4yvlNZfYU-10" value="&lt;font style=&quot;font-size: 18px&quot;&gt;show&lt;/font&gt;" style="rounded=0;whiteSpace=wrap;html=1;" vertex="1" parent="YTe9TTDmaKj4yvlNZfYU-1">
                    <mxGeometry x="136" y="380" width="80" height="40" as="geometry"/>
                </mxCell>
                <mxCell id="YTe9TTDmaKj4yvlNZfYU-11" value="&lt;font style=&quot;font-size: 18px&quot;&gt;sound&lt;/font&gt;" style="rounded=0;whiteSpace=wrap;html=1;" vertex="1" parent="YTe9TTDmaKj4yvlNZfYU-1">
                    <mxGeometry x="136" y="500" width="80" height="40" as="geometry"/>
                </mxCell>
                <mxCell id="YTe9TTDmaKj4yvlNZfYU-12" value="&lt;span style=&quot;font-size: 16px&quot;&gt;主要的用户交互逻辑处理&lt;/span&gt;" style="text;html=1;strokeColor=none;fillColor=none;align=center;verticalAlign=middle;whiteSpace=wrap;rounded=0;" vertex="1" parent="YTe9TTDmaKj4yvlNZfYU-1">
                    <mxGeometry x="260" y="60" width="190" height="20" as="geometry"/>
                </mxCell>
                <mxCell id="YTe9TTDmaKj4yvlNZfYU-13" value="" style="shape=curlyBracket;whiteSpace=wrap;html=1;rounded=1;flipH=1;" vertex="1" parent="YTe9TTDmaKj4yvlNZfYU-1">
                    <mxGeometry x="230" y="40" width="20" height="60" as="geometry"/>
                </mxCell>
                <mxCell id="YTe9TTDmaKj4yvlNZfYU-14" value="&lt;span style=&quot;font-size: 16px&quot;&gt;动画的处理以及平滑函数&lt;/span&gt;" style="text;html=1;strokeColor=none;fillColor=none;align=center;verticalAlign=middle;whiteSpace=wrap;rounded=0;" vertex="1" parent="YTe9TTDmaKj4yvlNZfYU-1">
                    <mxGeometry x="250" y="210" width="180" height="20" as="geometry"/>
                </mxCell>
                <mxCell id="YTe9TTDmaKj4yvlNZfYU-15" value="&lt;span style=&quot;font-size: 16px&quot;&gt;棋盘的处理以及规则逻辑的处理&lt;/span&gt;" style="text;html=1;strokeColor=none;fillColor=none;align=center;verticalAlign=middle;whiteSpace=wrap;rounded=0;" vertex="1" parent="YTe9TTDmaKj4yvlNZfYU-1">
                    <mxGeometry x="250" y="270" width="230" height="20" as="geometry"/>
                </mxCell>
                <mxCell id="YTe9TTDmaKj4yvlNZfYU-16" value="&lt;span style=&quot;font-size: 16px&quot;&gt;显示所需的字体文件&lt;/span&gt;" style="text;html=1;strokeColor=none;fillColor=none;align=center;verticalAlign=middle;whiteSpace=wrap;rounded=0;" vertex="1" parent="YTe9TTDmaKj4yvlNZfYU-1">
                    <mxGeometry x="250" y="450" width="150" height="20" as="geometry"/>
                </mxCell>
                <mxCell id="YTe9TTDmaKj4yvlNZfYU-17" value="&lt;span style=&quot;font-size: 16px&quot;&gt;用户输入逻辑处理&lt;/span&gt;" style="text;html=1;strokeColor=none;fillColor=none;align=center;verticalAlign=middle;whiteSpace=wrap;rounded=0;" vertex="1" parent="YTe9TTDmaKj4yvlNZfYU-1">
                    <mxGeometry x="250" y="150" width="130" height="20" as="geometry"/>
                </mxCell>
                <mxCell id="YTe9TTDmaKj4yvlNZfYU-18" value="&lt;span style=&quot;font-size: 16px&quot;&gt;通过pygame库显示各个模块&lt;/span&gt;" style="text;html=1;strokeColor=none;fillColor=none;align=center;verticalAlign=middle;whiteSpace=wrap;rounded=0;" vertex="1" parent="YTe9TTDmaKj4yvlNZfYU-1">
                    <mxGeometry x="250" y="390" width="210" height="20" as="geometry"/>
                </mxCell>
                <mxCell id="YTe9TTDmaKj4yvlNZfYU-19" value="&lt;span style=&quot;font-size: 16px&quot;&gt;游戏所需的声音文件&lt;/span&gt;" style="text;html=1;strokeColor=none;fillColor=none;align=center;verticalAlign=middle;whiteSpace=wrap;rounded=0;" vertex="1" parent="YTe9TTDmaKj4yvlNZfYU-1">
                    <mxGeometry x="250" y="510" width="150" height="20" as="geometry"/>
                </mxCell>
                <mxCell id="YTe9TTDmaKj4yvlNZfYU-20" value="&lt;span style=&quot;font-size: 16px&quot;&gt;按钮逻辑处理&lt;/span&gt;" style="text;html=1;strokeColor=none;fillColor=none;align=center;verticalAlign=middle;whiteSpace=wrap;rounded=0;" vertex="1" parent="YTe9TTDmaKj4yvlNZfYU-1">
                    <mxGeometry x="250" y="330" width="100" height="20" as="geometry"/>
                </mxCell>
                <mxCell id="YTe9TTDmaKj4yvlNZfYU-21" value="&lt;font style=&quot;font-size: 18px&quot;&gt;button&lt;/font&gt;" style="rounded=0;whiteSpace=wrap;html=1;" vertex="1" parent="YTe9TTDmaKj4yvlNZfYU-1">
                    <mxGeometry x="136" y="320" width="80" height="40" as="geometry"/>
                </mxCell>
            </root>
        </mxGraphModel>
    </diagram>
    <diagram id="fQ8lKeDSAzDZEbCqydbI" name="第 1 页">
        <mxGraphModel dx="1597" dy="739" grid="1" gridSize="10" guides="1" tooltips="1" connect="1" arrows="1" fold="1" page="1" pageScale="1" pageWidth="827" pageHeight="1169" math="0" shadow="0">
            <root>
                <mxCell id="0"/>
                <mxCell id="1" parent="0"/>
                <mxCell id="2" value="&lt;font style=&quot;font-size: 18px&quot;&gt;&lt;b&gt;文件结构&lt;/b&gt;&lt;/font&gt;" style="rounded=0;whiteSpace=wrap;html=1;" parent="1" vertex="1">
                    <mxGeometry y="255" width="100" height="50" as="geometry"/>
                </mxCell>
                <mxCell id="3" value="" style="shape=curlyBracket;whiteSpace=wrap;html=1;rounded=1;" parent="1" vertex="1">
                    <mxGeometry x="106" y="40" width="20" height="480" as="geometry"/>
                </mxCell>
                <mxCell id="5" value="&lt;font style=&quot;font-size: 18px&quot;&gt;animate&lt;/font&gt;" style="rounded=0;whiteSpace=wrap;html=1;" parent="1" vertex="1">
                    <mxGeometry x="136" y="200" width="80" height="40" as="geometry"/>
                </mxCell>
                <mxCell id="6" value="&lt;font style=&quot;font-size: 18px&quot;&gt;board&lt;/font&gt;" style="rounded=0;whiteSpace=wrap;html=1;" parent="1" vertex="1">
                    <mxGeometry x="136" y="260" width="80" height="40" as="geometry"/>
                </mxCell>
                <mxCell id="7" value="&lt;font style=&quot;font-size: 18px&quot;&gt;game&lt;/font&gt;" style="rounded=0;whiteSpace=wrap;html=1;" parent="1" vertex="1">
                    <mxGeometry x="136" y="140" width="80" height="40" as="geometry"/>
                </mxCell>
                <mxCell id="8" value="&lt;font style=&quot;font-size: 18px&quot;&gt;font&lt;/font&gt;" style="rounded=0;whiteSpace=wrap;html=1;" parent="1" vertex="1">
                    <mxGeometry x="136" y="440" width="80" height="40" as="geometry"/>
                </mxCell>
                <mxCell id="9" value="&lt;font style=&quot;font-size: 18px&quot;&gt;action.py&lt;/font&gt;" style="rounded=1;whiteSpace=wrap;html=1;" parent="1" vertex="1">
                    <mxGeometry x="136" y="80" width="80" height="40" as="geometry"/>
                </mxCell>
                <mxCell id="10" value="&lt;font style=&quot;font-size: 18px&quot;&gt;paly.py&lt;/font&gt;" style="rounded=1;whiteSpace=wrap;html=1;" parent="1" vertex="1">
                    <mxGeometry x="136" y="20" width="80" height="40" as="geometry"/>
                </mxCell>
                <mxCell id="11" value="&lt;font style=&quot;font-size: 18px&quot;&gt;show&lt;/font&gt;" style="rounded=0;whiteSpace=wrap;html=1;" parent="1" vertex="1">
                    <mxGeometry x="136" y="380" width="80" height="40" as="geometry"/>
                </mxCell>
                <mxCell id="12" value="&lt;font style=&quot;font-size: 18px&quot;&gt;sound&lt;/font&gt;" style="rounded=0;whiteSpace=wrap;html=1;" parent="1" vertex="1">
                    <mxGeometry x="136" y="500" width="80" height="40" as="geometry"/>
                </mxCell>
                <mxCell id="14" value="&lt;span style=&quot;font-size: 16px&quot;&gt;主要的用户交互逻辑处理&lt;/span&gt;" style="text;html=1;strokeColor=none;fillColor=none;align=center;verticalAlign=middle;whiteSpace=wrap;rounded=0;" parent="1" vertex="1">
                    <mxGeometry x="260" y="60" width="190" height="20" as="geometry"/>
                </mxCell>
                <mxCell id="15" value="" style="shape=curlyBracket;whiteSpace=wrap;html=1;rounded=1;flipH=1;" parent="1" vertex="1">
                    <mxGeometry x="230" y="40" width="20" height="60" as="geometry"/>
                </mxCell>
                <mxCell id="16" value="&lt;span style=&quot;font-size: 16px&quot;&gt;动画的处理以及平滑函数&lt;/span&gt;" style="text;html=1;strokeColor=none;fillColor=none;align=center;verticalAlign=middle;whiteSpace=wrap;rounded=0;" parent="1" vertex="1">
                    <mxGeometry x="250" y="210" width="180" height="20" as="geometry"/>
                </mxCell>
                <mxCell id="17" value="&lt;span style=&quot;font-size: 16px&quot;&gt;棋盘的处理以及规则逻辑的处理&lt;/span&gt;" style="text;html=1;strokeColor=none;fillColor=none;align=center;verticalAlign=middle;whiteSpace=wrap;rounded=0;" parent="1" vertex="1">
                    <mxGeometry x="250" y="270" width="230" height="20" as="geometry"/>
                </mxCell>
                <mxCell id="18" value="&lt;span style=&quot;font-size: 16px&quot;&gt;显示所需的字体文件&lt;/span&gt;" style="text;html=1;strokeColor=none;fillColor=none;align=center;verticalAlign=middle;whiteSpace=wrap;rounded=0;" parent="1" vertex="1">
                    <mxGeometry x="250" y="450" width="150" height="20" as="geometry"/>
                </mxCell>
                <mxCell id="19" value="&lt;span style=&quot;font-size: 16px&quot;&gt;用户输入逻辑处理&lt;/span&gt;" style="text;html=1;strokeColor=none;fillColor=none;align=center;verticalAlign=middle;whiteSpace=wrap;rounded=0;" parent="1" vertex="1">
                    <mxGeometry x="250" y="150" width="130" height="20" as="geometry"/>
                </mxCell>
                <mxCell id="20" value="&lt;span style=&quot;font-size: 16px&quot;&gt;通过pygame库显示各个模块&lt;/span&gt;" style="text;html=1;strokeColor=none;fillColor=none;align=center;verticalAlign=middle;whiteSpace=wrap;rounded=0;" parent="1" vertex="1">
                    <mxGeometry x="250" y="390" width="210" height="20" as="geometry"/>
                </mxCell>
                <mxCell id="21" value="&lt;span style=&quot;font-size: 16px&quot;&gt;游戏所需的声音文件&lt;/span&gt;" style="text;html=1;strokeColor=none;fillColor=none;align=center;verticalAlign=middle;whiteSpace=wrap;rounded=0;" parent="1" vertex="1">
                    <mxGeometry x="250" y="510" width="150" height="20" as="geometry"/>
                </mxCell>
                <mxCell id="22" value="&lt;span style=&quot;font-size: 18px&quot;&gt;&lt;b&gt;程序结构&lt;/b&gt;&lt;/span&gt;" style="rounded=0;whiteSpace=wrap;html=1;" parent="1" vertex="1">
                    <mxGeometry x="850" y="135" width="100" height="50" as="geometry"/>
                </mxCell>
                <mxCell id="30" value="&lt;span style=&quot;font-size: 16px&quot;&gt;按钮逻辑处理&lt;/span&gt;" style="text;html=1;strokeColor=none;fillColor=none;align=center;verticalAlign=middle;whiteSpace=wrap;rounded=0;" parent="1" vertex="1">
                    <mxGeometry x="250" y="330" width="100" height="20" as="geometry"/>
                </mxCell>
                <mxCell id="31" value="&lt;font style=&quot;font-size: 18px&quot;&gt;button&lt;/font&gt;" style="rounded=0;whiteSpace=wrap;html=1;" parent="1" vertex="1">
                    <mxGeometry x="136" y="320" width="80" height="40" as="geometry"/>
                </mxCell>
                <mxCell id="48" style="edgeStyle=none;html=1;entryX=0;entryY=0.5;entryDx=0;entryDy=0;" parent="1" edge="1">
                    <mxGeometry relative="1" as="geometry">
                        <mxPoint x="1710" y="350" as="targetPoint"/>
                    </mxGeometry>
                </mxCell>
                <mxCell id="50" value="Actor" style="shape=umlActor;verticalLabelPosition=bottom;verticalAlign=top;html=1;outlineConnect=0;" parent="1" vertex="1">
                    <mxGeometry x="930" y="490" width="30" height="60" as="geometry"/>
                </mxCell>
                <mxCell id="51" value="" style="endArrow=none;dashed=1;html=1;dashPattern=1 3;strokeWidth=2;" parent="1" edge="1">
                    <mxGeometry width="50" height="50" relative="1" as="geometry">
                        <mxPoint x="740.5" y="960" as="sourcePoint"/>
                        <mxPoint x="740" y="370" as="targetPoint"/>
                    </mxGeometry>
                </mxCell>
                <mxCell id="52" value="&lt;font style=&quot;font-size: 18px&quot;&gt;action.py&lt;/font&gt;" style="rounded=1;whiteSpace=wrap;html=1;" parent="1" vertex="1">
                    <mxGeometry x="1240" y="140" width="80" height="40" as="geometry"/>
                </mxCell>
                <mxCell id="53" value="&lt;font style=&quot;font-size: 18px&quot;&gt;paly.py&lt;/font&gt;" style="rounded=1;whiteSpace=wrap;html=1;" parent="1" vertex="1">
                    <mxGeometry x="1240" y="80" width="80" height="40" as="geometry"/>
                </mxCell>
                <mxCell id="54" value="&lt;font style=&quot;font-size: 16px&quot;&gt;启动&lt;/font&gt;" style="text;html=1;strokeColor=none;fillColor=none;align=center;verticalAlign=middle;whiteSpace=wrap;rounded=0;" parent="1" vertex="1">
                    <mxGeometry x="1350" y="122.5" width="40" height="20" as="geometry"/>
                </mxCell>
                <mxCell id="64" style="edgeStyle=none;html=1;exitX=0.75;exitY=1;exitDx=0;exitDy=0;entryX=0;entryY=0.5;entryDx=0;entryDy=0;" parent="1" source="55" target="62" edge="1">
                    <mxGeometry relative="1" as="geometry"/>
                </mxCell>
                <mxCell id="65" style="edgeStyle=none;html=1;exitX=0.623;exitY=1.016;exitDx=0;exitDy=0;exitPerimeter=0;" parent="1" source="55" edge="1">
                    <mxGeometry relative="1" as="geometry">
                        <mxPoint x="1220" y="580" as="targetPoint"/>
                    </mxGeometry>
                </mxCell>
                <mxCell id="69" style="edgeStyle=none;html=1;exitX=1;exitY=0.5;exitDx=0;exitDy=0;" parent="1" source="55" edge="1">
                    <mxGeometry relative="1" as="geometry">
                        <mxPoint x="1280" y="410.33333333333337" as="targetPoint"/>
                    </mxGeometry>
                </mxCell>
                <mxCell id="86" style="edgeStyle=none;curved=1;html=1;exitX=0.5;exitY=1;exitDx=0;exitDy=0;entryX=0.25;entryY=0;entryDx=0;entryDy=0;dashed=1;" parent="1" source="55" target="78" edge="1">
                    <mxGeometry relative="1" as="geometry"/>
                </mxCell>
                <mxCell id="55" value="&lt;font style=&quot;font-size: 18px&quot;&gt;button&lt;/font&gt;" style="rounded=0;whiteSpace=wrap;html=1;" parent="1" vertex="1">
                    <mxGeometry x="1110" y="390" width="80" height="40" as="geometry"/>
                </mxCell>
                <mxCell id="56" value="" style="shape=curlyBracket;whiteSpace=wrap;html=1;rounded=1;flipH=1;size=0.5;" parent="1" vertex="1">
                    <mxGeometry x="1330" y="102.5" width="20" height="60" as="geometry"/>
                </mxCell>
                <mxCell id="59" value="" style="endArrow=classic;html=1;entryX=0;entryY=0.5;entryDx=0;entryDy=0;" parent="1" source="50" target="55" edge="1">
                    <mxGeometry width="50" height="50" relative="1" as="geometry">
                        <mxPoint x="1110" y="440" as="sourcePoint"/>
                        <mxPoint x="1160" y="390" as="targetPoint"/>
                    </mxGeometry>
                </mxCell>
                <mxCell id="60" value="&lt;span style=&quot;font-size: 16px&quot;&gt;点击&lt;/span&gt;" style="text;html=1;strokeColor=none;fillColor=none;align=center;verticalAlign=middle;whiteSpace=wrap;rounded=0;" parent="1" vertex="1">
                    <mxGeometry x="980" y="460" width="40" height="20" as="geometry"/>
                </mxCell>
                <mxCell id="62" value="&lt;font style=&quot;font-size: 18px&quot;&gt;base&lt;/font&gt;" style="rounded=0;whiteSpace=wrap;html=1;" parent="1" vertex="1">
                    <mxGeometry x="1270" y="480" width="80" height="40" as="geometry"/>
                </mxCell>
                <mxCell id="92" style="edgeStyle=none;curved=1;html=1;exitX=1;exitY=0.25;exitDx=0;exitDy=0;entryX=0;entryY=0.25;entryDx=0;entryDy=0;dashed=1;" parent="1" source="63" target="90" edge="1">
                    <mxGeometry relative="1" as="geometry">
                        <Array as="points">
                            <mxPoint x="1310" y="560"/>
                        </Array>
                    </mxGeometry>
                </mxCell>
                <mxCell id="63" value="&lt;font style=&quot;font-size: 18px&quot;&gt;AI&lt;/font&gt;" style="rounded=0;whiteSpace=wrap;html=1;" parent="1" vertex="1">
                    <mxGeometry x="1221" y="560" width="69" height="40" as="geometry"/>
                </mxCell>
                <mxCell id="67" value="&lt;span style=&quot;font-size: 16px&quot;&gt;进入Base模式&lt;/span&gt;" style="text;html=1;strokeColor=none;fillColor=none;align=center;verticalAlign=middle;whiteSpace=wrap;rounded=0;" parent="1" vertex="1">
                    <mxGeometry x="1190" y="440" width="129.5" height="20" as="geometry"/>
                </mxCell>
                <mxCell id="68" value="&lt;span style=&quot;font-size: 16px&quot;&gt;进入AI模式&lt;/span&gt;" style="text;html=1;strokeColor=none;fillColor=none;align=center;verticalAlign=middle;whiteSpace=wrap;rounded=0;" parent="1" vertex="1">
                    <mxGeometry x="1179" y="530" width="101" height="20" as="geometry"/>
                </mxCell>
                <mxCell id="73" value="&lt;span style=&quot;font-size: 16px&quot;&gt;Tip&lt;/span&gt;" style="text;html=1;strokeColor=none;fillColor=none;align=center;verticalAlign=middle;whiteSpace=wrap;rounded=0;" parent="1" vertex="1">
                    <mxGeometry x="1193.5" y="390" width="40" height="20" as="geometry"/>
                </mxCell>
                <mxCell id="74" value="&lt;font style=&quot;font-size: 18px&quot;&gt;Tip&lt;/font&gt;" style="rounded=0;whiteSpace=wrap;html=1;" parent="1" vertex="1">
                    <mxGeometry x="1280" y="390" width="70" height="40" as="geometry"/>
                </mxCell>
                <mxCell id="75" value="" style="curved=1;endArrow=classic;html=1;exitX=1;exitY=0.5;exitDx=0;exitDy=0;dashed=1;entryX=0.75;entryY=0;entryDx=0;entryDy=0;" parent="1" source="74" target="90" edge="1">
                    <mxGeometry width="50" height="50" relative="1" as="geometry">
                        <mxPoint x="1160" y="580" as="sourcePoint"/>
                        <mxPoint x="1400" y="540" as="targetPoint"/>
                        <Array as="points">
                            <mxPoint x="1390" y="410"/>
                            <mxPoint x="1440" y="480"/>
                        </Array>
                    </mxGeometry>
                </mxCell>
                <mxCell id="77" value="&lt;span style=&quot;font-size: 16px&quot;&gt;当前情况&lt;/span&gt;" style="text;html=1;strokeColor=none;fillColor=none;align=center;verticalAlign=middle;whiteSpace=wrap;rounded=0;" parent="1" vertex="1">
                    <mxGeometry x="1460" y="485" width="70" height="30" as="geometry"/>
                </mxCell>
                <mxCell id="106" style="edgeStyle=none;curved=1;html=1;exitX=0.5;exitY=1;exitDx=0;exitDy=0;entryX=0.25;entryY=0;entryDx=0;entryDy=0;" parent="1" source="78" target="105" edge="1">
                    <mxGeometry relative="1" as="geometry"/>
                </mxCell>
                <mxCell id="78" value="&lt;font style=&quot;font-size: 18px&quot;&gt;board&amp;nbsp; &amp;nbsp;&amp;nbsp;&lt;br&gt;&lt;br&gt;&lt;/font&gt;" style="rounded=0;whiteSpace=wrap;html=1;" parent="1" vertex="1">
                    <mxGeometry x="1171" y="730" width="100" height="60" as="geometry"/>
                </mxCell>
                <mxCell id="108" style="edgeStyle=none;curved=1;html=1;exitX=1;exitY=0.5;exitDx=0;exitDy=0;entryX=0;entryY=0.5;entryDx=0;entryDy=0;dashed=1;" parent="1" source="79" target="107" edge="1">
                    <mxGeometry relative="1" as="geometry"/>
                </mxCell>
                <mxCell id="79" value="&lt;font style=&quot;font-size: 18px&quot;&gt;block&lt;/font&gt;" style="rounded=0;whiteSpace=wrap;html=1;" parent="1" vertex="1">
                    <mxGeometry x="1231" y="770" width="60" height="35" as="geometry"/>
                </mxCell>
                <mxCell id="82" value="" style="endArrow=classic;html=1;dashed=1;exitX=0.5;exitY=1;exitDx=0;exitDy=0;entryX=0.5;entryY=0;entryDx=0;entryDy=0;" parent="1" source="63" target="78" edge="1">
                    <mxGeometry width="50" height="50" relative="1" as="geometry">
                        <mxPoint x="1060" y="570" as="sourcePoint"/>
                        <mxPoint x="1110" y="520" as="targetPoint"/>
                    </mxGeometry>
                </mxCell>
                <mxCell id="83" value="" style="endArrow=classic;html=1;dashed=1;entryX=0.75;entryY=0;entryDx=0;entryDy=0;exitX=0.5;exitY=1;exitDx=0;exitDy=0;curved=1;" parent="1" source="62" target="78" edge="1">
                    <mxGeometry width="50" height="50" relative="1" as="geometry">
                        <mxPoint x="1360" y="630" as="sourcePoint"/>
                        <mxPoint x="1221" y="730" as="targetPoint"/>
                        <Array as="points">
                            <mxPoint x="1350" y="650"/>
                        </Array>
                    </mxGeometry>
                </mxCell>
                <mxCell id="84" value="&lt;span style=&quot;font-size: 16px&quot;&gt;操作&lt;/span&gt;" style="text;html=1;strokeColor=none;fillColor=none;align=center;verticalAlign=middle;whiteSpace=wrap;rounded=0;" parent="1" vertex="1">
                    <mxGeometry x="1222" y="660" width="69" height="20" as="geometry"/>
                </mxCell>
                <mxCell id="85" value="&lt;span style=&quot;font-size: 16px&quot;&gt;操作&lt;/span&gt;" style="text;html=1;strokeColor=none;fillColor=none;align=center;verticalAlign=middle;whiteSpace=wrap;rounded=0;" parent="1" vertex="1">
                    <mxGeometry x="1291" y="660" width="69" height="20" as="geometry"/>
                </mxCell>
                <mxCell id="87" value="&lt;span style=&quot;font-size: 16px&quot;&gt;清空并随机添加初始&lt;/span&gt;" style="text;html=1;strokeColor=none;fillColor=none;align=center;verticalAlign=middle;whiteSpace=wrap;rounded=0;" parent="1" vertex="1">
                    <mxGeometry x="1090" y="600" width="89" height="20" as="geometry"/>
                </mxCell>
                <mxCell id="88" value="&lt;span style=&quot;font-size: 16px&quot;&gt;New&lt;/span&gt;" style="text;html=1;strokeColor=none;fillColor=none;align=center;verticalAlign=middle;whiteSpace=wrap;rounded=0;" parent="1" vertex="1">
                    <mxGeometry x="1110" y="470" width="40" height="20" as="geometry"/>
                </mxCell>
                <mxCell id="93" style="edgeStyle=none;curved=1;html=1;exitX=0;exitY=0.5;exitDx=0;exitDy=0;entryX=1;entryY=0.75;entryDx=0;entryDy=0;dashed=1;" parent="1" source="90" target="63" edge="1">
                    <mxGeometry relative="1" as="geometry">
                        <Array as="points">
                            <mxPoint x="1340" y="600"/>
                        </Array>
                    </mxGeometry>
                </mxCell>
                <mxCell id="95" style="edgeStyle=none;curved=1;html=1;exitX=0.25;exitY=0;exitDx=0;exitDy=0;entryX=0.75;entryY=1;entryDx=0;entryDy=0;dashed=1;" parent="1" source="90" target="74" edge="1">
                    <mxGeometry relative="1" as="geometry">
                        <Array as="points">
                            <mxPoint x="1395" y="470"/>
                        </Array>
                    </mxGeometry>
                </mxCell>
                <mxCell id="90" value="&lt;font style=&quot;font-size: 14px&quot;&gt;GetBestMove&lt;/font&gt;" style="rounded=0;whiteSpace=wrap;html=1;" parent="1" vertex="1">
                    <mxGeometry x="1420" y="565" width="100" height="40" as="geometry"/>
                </mxCell>
                <mxCell id="97" value="" style="endArrow=classic;html=1;entryX=0;entryY=0.75;entryDx=0;entryDy=0;" parent="1" source="50" target="62" edge="1">
                    <mxGeometry width="50" height="50" relative="1" as="geometry">
                        <mxPoint x="1280" y="620" as="sourcePoint"/>
                        <mxPoint x="1330" y="570" as="targetPoint"/>
                    </mxGeometry>
                </mxCell>
                <mxCell id="99" value="&lt;span style=&quot;font-size: 16px&quot;&gt;按键&lt;/span&gt;" style="text;html=1;strokeColor=none;fillColor=none;align=center;verticalAlign=middle;whiteSpace=wrap;rounded=0;" parent="1" vertex="1">
                    <mxGeometry x="990" y="520" width="40" height="20" as="geometry"/>
                </mxCell>
                <mxCell id="100" value="&lt;span style=&quot;font-size: 16px&quot;&gt;操作&lt;/span&gt;" style="text;html=1;strokeColor=none;fillColor=none;align=center;verticalAlign=middle;whiteSpace=wrap;rounded=0;" parent="1" vertex="1">
                    <mxGeometry x="1400" y="525" width="50" height="30" as="geometry"/>
                </mxCell>
                <mxCell id="101" value="&lt;span style=&quot;font-size: 16px&quot;&gt;操作&lt;/span&gt;" style="text;html=1;strokeColor=none;fillColor=none;align=center;verticalAlign=middle;whiteSpace=wrap;rounded=0;" parent="1" vertex="1">
                    <mxGeometry x="1360" y="585" width="50" height="30" as="geometry"/>
                </mxCell>
                <mxCell id="102" value="&lt;span style=&quot;font-size: 16px&quot;&gt;当前情况&lt;/span&gt;" style="text;html=1;strokeColor=none;fillColor=none;align=center;verticalAlign=middle;whiteSpace=wrap;rounded=0;" parent="1" vertex="1">
                    <mxGeometry x="1330" y="540" width="70" height="30" as="geometry"/>
                </mxCell>
                <mxCell id="105" value="&lt;font style=&quot;font-size: 18px&quot;&gt;showALL&lt;/font&gt;" style="rounded=0;whiteSpace=wrap;html=1;" parent="1" vertex="1">
                    <mxGeometry x="1240" y="890" width="90" height="40" as="geometry"/>
                </mxCell>
                <mxCell id="109" style="edgeStyle=none;curved=1;html=1;exitX=0.5;exitY=1;exitDx=0;exitDy=0;" parent="1" source="107" target="105" edge="1">
                    <mxGeometry relative="1" as="geometry"/>
                </mxCell>
                <mxCell id="107" value="&lt;font style=&quot;font-size: 18px&quot;&gt;animate&lt;/font&gt;" style="rounded=0;whiteSpace=wrap;html=1;" parent="1" vertex="1">
                    <mxGeometry x="1345" y="767.5" width="80" height="40" as="geometry"/>
                </mxCell>
                <mxCell id="111" value="&lt;span style=&quot;font-size: 16px&quot;&gt;显示所有&lt;/span&gt;" style="text;html=1;strokeColor=none;fillColor=none;align=center;verticalAlign=middle;whiteSpace=wrap;rounded=0;" parent="1" vertex="1">
                    <mxGeometry x="1340.5" y="900" width="89" height="20" as="geometry"/>
                </mxCell>
            </root>
        </mxGraphModel>
    </diagram>
    <diagram id="-GYL2tuwSVsbQAe_AfKk" name="第 2 页">
        <mxGraphModel dx="1036" dy="862" grid="1" gridSize="10" guides="1" tooltips="1" connect="1" arrows="1" fold="1" page="1" pageScale="1" pageWidth="827" pageHeight="1169" math="0" shadow="0">
            <root>
                <mxCell id="VrsPPtuVAQyJl5yCclh0-0"/>
                <mxCell id="VrsPPtuVAQyJl5yCclh0-1" parent="VrsPPtuVAQyJl5yCclh0-0"/>
                <mxCell id="1xE6ixHo9524VgZTY6br-0" value="Actor" style="shape=umlActor;verticalLabelPosition=bottom;verticalAlign=top;html=1;outlineConnect=0;" vertex="1" parent="VrsPPtuVAQyJl5yCclh0-1">
                    <mxGeometry x="930" y="490" width="30" height="60" as="geometry"/>
                </mxCell>
                <mxCell id="1xE6ixHo9524VgZTY6br-1" style="edgeStyle=none;html=1;exitX=0.75;exitY=1;exitDx=0;exitDy=0;entryX=0;entryY=0.5;entryDx=0;entryDy=0;" edge="1" parent="VrsPPtuVAQyJl5yCclh0-1" source="1xE6ixHo9524VgZTY6br-5" target="1xE6ixHo9524VgZTY6br-8">
                    <mxGeometry relative="1" as="geometry"/>
                </mxCell>
                <mxCell id="1xE6ixHo9524VgZTY6br-2" style="edgeStyle=none;html=1;exitX=0.623;exitY=1.016;exitDx=0;exitDy=0;exitPerimeter=0;" edge="1" parent="VrsPPtuVAQyJl5yCclh0-1" source="1xE6ixHo9524VgZTY6br-5">
                    <mxGeometry relative="1" as="geometry">
                        <mxPoint x="1220" y="580" as="targetPoint"/>
                    </mxGeometry>
                </mxCell>
                <mxCell id="1xE6ixHo9524VgZTY6br-3" style="edgeStyle=none;html=1;exitX=1;exitY=0.5;exitDx=0;exitDy=0;" edge="1" parent="VrsPPtuVAQyJl5yCclh0-1" source="1xE6ixHo9524VgZTY6br-5">
                    <mxGeometry relative="1" as="geometry">
                        <mxPoint x="1280" y="410.3333333333335" as="targetPoint"/>
                    </mxGeometry>
                </mxCell>
                <mxCell id="1xE6ixHo9524VgZTY6br-4" style="edgeStyle=none;curved=1;html=1;exitX=0.5;exitY=1;exitDx=0;exitDy=0;entryX=0.25;entryY=0;entryDx=0;entryDy=0;dashed=1;" edge="1" parent="VrsPPtuVAQyJl5yCclh0-1" source="1xE6ixHo9524VgZTY6br-5" target="1xE6ixHo9524VgZTY6br-18">
                    <mxGeometry relative="1" as="geometry"/>
                </mxCell>
                <mxCell id="1xE6ixHo9524VgZTY6br-5" value="&lt;font style=&quot;font-size: 18px&quot;&gt;button&lt;/font&gt;" style="rounded=0;whiteSpace=wrap;html=1;" vertex="1" parent="VrsPPtuVAQyJl5yCclh0-1">
                    <mxGeometry x="1110" y="390" width="80" height="40" as="geometry"/>
                </mxCell>
                <mxCell id="1xE6ixHo9524VgZTY6br-6" value="" style="endArrow=classic;html=1;entryX=0;entryY=0.5;entryDx=0;entryDy=0;" edge="1" parent="VrsPPtuVAQyJl5yCclh0-1" source="1xE6ixHo9524VgZTY6br-0" target="1xE6ixHo9524VgZTY6br-5">
                    <mxGeometry width="50" height="50" relative="1" as="geometry">
                        <mxPoint x="1110" y="440" as="sourcePoint"/>
                        <mxPoint x="1160" y="390" as="targetPoint"/>
                    </mxGeometry>
                </mxCell>
                <mxCell id="1xE6ixHo9524VgZTY6br-7" value="&lt;span style=&quot;font-size: 16px&quot;&gt;点击&lt;/span&gt;" style="text;html=1;strokeColor=none;fillColor=none;align=center;verticalAlign=middle;whiteSpace=wrap;rounded=0;" vertex="1" parent="VrsPPtuVAQyJl5yCclh0-1">
                    <mxGeometry x="980" y="460" width="40" height="20" as="geometry"/>
                </mxCell>
                <mxCell id="1xE6ixHo9524VgZTY6br-8" value="&lt;font style=&quot;font-size: 18px&quot;&gt;base&lt;/font&gt;" style="rounded=0;whiteSpace=wrap;html=1;" vertex="1" parent="VrsPPtuVAQyJl5yCclh0-1">
                    <mxGeometry x="1270" y="480" width="80" height="40" as="geometry"/>
                </mxCell>
                <mxCell id="1xE6ixHo9524VgZTY6br-9" style="edgeStyle=none;curved=1;html=1;exitX=1;exitY=0.25;exitDx=0;exitDy=0;entryX=0;entryY=0.25;entryDx=0;entryDy=0;dashed=1;" edge="1" parent="VrsPPtuVAQyJl5yCclh0-1" source="1xE6ixHo9524VgZTY6br-10" target="1xE6ixHo9524VgZTY6br-29">
                    <mxGeometry relative="1" as="geometry">
                        <Array as="points">
                            <mxPoint x="1310" y="560"/>
                        </Array>
                    </mxGeometry>
                </mxCell>
                <mxCell id="1xE6ixHo9524VgZTY6br-10" value="&lt;font style=&quot;font-size: 18px&quot;&gt;AI&lt;/font&gt;" style="rounded=0;whiteSpace=wrap;html=1;" vertex="1" parent="VrsPPtuVAQyJl5yCclh0-1">
                    <mxGeometry x="1221" y="560" width="69" height="40" as="geometry"/>
                </mxCell>
                <mxCell id="1xE6ixHo9524VgZTY6br-11" value="&lt;span style=&quot;font-size: 16px&quot;&gt;进入Base模式&lt;/span&gt;" style="text;html=1;strokeColor=none;fillColor=none;align=center;verticalAlign=middle;whiteSpace=wrap;rounded=0;" vertex="1" parent="VrsPPtuVAQyJl5yCclh0-1">
                    <mxGeometry x="1190" y="440" width="129.5" height="20" as="geometry"/>
                </mxCell>
                <mxCell id="1xE6ixHo9524VgZTY6br-12" value="&lt;span style=&quot;font-size: 16px&quot;&gt;进入AI模式&lt;/span&gt;" style="text;html=1;strokeColor=none;fillColor=none;align=center;verticalAlign=middle;whiteSpace=wrap;rounded=0;" vertex="1" parent="VrsPPtuVAQyJl5yCclh0-1">
                    <mxGeometry x="1179" y="530" width="101" height="20" as="geometry"/>
                </mxCell>
                <mxCell id="1xE6ixHo9524VgZTY6br-13" value="&lt;span style=&quot;font-size: 16px&quot;&gt;Tip&lt;/span&gt;" style="text;html=1;strokeColor=none;fillColor=none;align=center;verticalAlign=middle;whiteSpace=wrap;rounded=0;" vertex="1" parent="VrsPPtuVAQyJl5yCclh0-1">
                    <mxGeometry x="1193.5" y="390" width="40" height="20" as="geometry"/>
                </mxCell>
                <mxCell id="1xE6ixHo9524VgZTY6br-14" value="&lt;font style=&quot;font-size: 18px&quot;&gt;Tip&lt;/font&gt;" style="rounded=0;whiteSpace=wrap;html=1;" vertex="1" parent="VrsPPtuVAQyJl5yCclh0-1">
                    <mxGeometry x="1280" y="390" width="70" height="40" as="geometry"/>
                </mxCell>
                <mxCell id="1xE6ixHo9524VgZTY6br-15" value="" style="curved=1;endArrow=classic;html=1;exitX=1;exitY=0.5;exitDx=0;exitDy=0;dashed=1;entryX=0.75;entryY=0;entryDx=0;entryDy=0;" edge="1" parent="VrsPPtuVAQyJl5yCclh0-1" source="1xE6ixHo9524VgZTY6br-14" target="1xE6ixHo9524VgZTY6br-29">
                    <mxGeometry width="50" height="50" relative="1" as="geometry">
                        <mxPoint x="1160" y="580" as="sourcePoint"/>
                        <mxPoint x="1400" y="540" as="targetPoint"/>
                        <Array as="points">
                            <mxPoint x="1390" y="410"/>
                            <mxPoint x="1440" y="480"/>
                        </Array>
                    </mxGeometry>
                </mxCell>
                <mxCell id="1xE6ixHo9524VgZTY6br-16" value="&lt;span style=&quot;font-size: 16px&quot;&gt;当前情况&lt;/span&gt;" style="text;html=1;strokeColor=none;fillColor=none;align=center;verticalAlign=middle;whiteSpace=wrap;rounded=0;" vertex="1" parent="VrsPPtuVAQyJl5yCclh0-1">
                    <mxGeometry x="1460" y="485" width="70" height="30" as="geometry"/>
                </mxCell>
                <mxCell id="1xE6ixHo9524VgZTY6br-17" style="edgeStyle=none;curved=1;html=1;exitX=0.5;exitY=1;exitDx=0;exitDy=0;entryX=0.25;entryY=0;entryDx=0;entryDy=0;" edge="1" parent="VrsPPtuVAQyJl5yCclh0-1" source="1xE6ixHo9524VgZTY6br-18" target="1xE6ixHo9524VgZTY6br-35">
                    <mxGeometry relative="1" as="geometry"/>
                </mxCell>
                <mxCell id="1xE6ixHo9524VgZTY6br-18" value="&lt;font style=&quot;font-size: 18px&quot;&gt;board&amp;nbsp; &amp;nbsp;&amp;nbsp;&lt;br&gt;&lt;br&gt;&lt;/font&gt;" style="rounded=0;whiteSpace=wrap;html=1;" vertex="1" parent="VrsPPtuVAQyJl5yCclh0-1">
                    <mxGeometry x="1171" y="730" width="100" height="60" as="geometry"/>
                </mxCell>
                <mxCell id="1xE6ixHo9524VgZTY6br-19" style="edgeStyle=none;curved=1;html=1;exitX=1;exitY=0.5;exitDx=0;exitDy=0;entryX=0;entryY=0.5;entryDx=0;entryDy=0;dashed=1;" edge="1" parent="VrsPPtuVAQyJl5yCclh0-1" source="1xE6ixHo9524VgZTY6br-20" target="1xE6ixHo9524VgZTY6br-37">
                    <mxGeometry relative="1" as="geometry"/>
                </mxCell>
                <mxCell id="1xE6ixHo9524VgZTY6br-20" value="&lt;font style=&quot;font-size: 18px&quot;&gt;block&lt;/font&gt;" style="rounded=0;whiteSpace=wrap;html=1;" vertex="1" parent="VrsPPtuVAQyJl5yCclh0-1">
                    <mxGeometry x="1231" y="770" width="60" height="35" as="geometry"/>
                </mxCell>
                <mxCell id="1xE6ixHo9524VgZTY6br-21" value="" style="endArrow=classic;html=1;dashed=1;exitX=0.5;exitY=1;exitDx=0;exitDy=0;entryX=0.5;entryY=0;entryDx=0;entryDy=0;" edge="1" parent="VrsPPtuVAQyJl5yCclh0-1" source="1xE6ixHo9524VgZTY6br-10" target="1xE6ixHo9524VgZTY6br-18">
                    <mxGeometry width="50" height="50" relative="1" as="geometry">
                        <mxPoint x="1060" y="570" as="sourcePoint"/>
                        <mxPoint x="1110" y="520" as="targetPoint"/>
                    </mxGeometry>
                </mxCell>
                <mxCell id="1xE6ixHo9524VgZTY6br-22" value="" style="endArrow=classic;html=1;dashed=1;entryX=0.75;entryY=0;entryDx=0;entryDy=0;exitX=0.5;exitY=1;exitDx=0;exitDy=0;curved=1;" edge="1" parent="VrsPPtuVAQyJl5yCclh0-1" source="1xE6ixHo9524VgZTY6br-8" target="1xE6ixHo9524VgZTY6br-18">
                    <mxGeometry width="50" height="50" relative="1" as="geometry">
                        <mxPoint x="1360" y="630" as="sourcePoint"/>
                        <mxPoint x="1221" y="730" as="targetPoint"/>
                        <Array as="points">
                            <mxPoint x="1350" y="650"/>
                        </Array>
                    </mxGeometry>
                </mxCell>
                <mxCell id="1xE6ixHo9524VgZTY6br-23" value="&lt;span style=&quot;font-size: 16px&quot;&gt;操作&lt;/span&gt;" style="text;html=1;strokeColor=none;fillColor=none;align=center;verticalAlign=middle;whiteSpace=wrap;rounded=0;" vertex="1" parent="VrsPPtuVAQyJl5yCclh0-1">
                    <mxGeometry x="1222" y="660" width="69" height="20" as="geometry"/>
                </mxCell>
                <mxCell id="1xE6ixHo9524VgZTY6br-24" value="&lt;span style=&quot;font-size: 16px&quot;&gt;操作&lt;/span&gt;" style="text;html=1;strokeColor=none;fillColor=none;align=center;verticalAlign=middle;whiteSpace=wrap;rounded=0;" vertex="1" parent="VrsPPtuVAQyJl5yCclh0-1">
                    <mxGeometry x="1291" y="660" width="69" height="20" as="geometry"/>
                </mxCell>
                <mxCell id="1xE6ixHo9524VgZTY6br-25" value="&lt;span style=&quot;font-size: 16px&quot;&gt;清空并随机添加初始&lt;/span&gt;" style="text;html=1;strokeColor=none;fillColor=none;align=center;verticalAlign=middle;whiteSpace=wrap;rounded=0;" vertex="1" parent="VrsPPtuVAQyJl5yCclh0-1">
                    <mxGeometry x="1090" y="600" width="89" height="20" as="geometry"/>
                </mxCell>
                <mxCell id="1xE6ixHo9524VgZTY6br-26" value="&lt;span style=&quot;font-size: 16px&quot;&gt;New&lt;/span&gt;" style="text;html=1;strokeColor=none;fillColor=none;align=center;verticalAlign=middle;whiteSpace=wrap;rounded=0;" vertex="1" parent="VrsPPtuVAQyJl5yCclh0-1">
                    <mxGeometry x="1110" y="470" width="40" height="20" as="geometry"/>
                </mxCell>
                <mxCell id="1xE6ixHo9524VgZTY6br-27" style="edgeStyle=none;curved=1;html=1;exitX=0;exitY=0.5;exitDx=0;exitDy=0;entryX=1;entryY=0.75;entryDx=0;entryDy=0;dashed=1;" edge="1" parent="VrsPPtuVAQyJl5yCclh0-1" source="1xE6ixHo9524VgZTY6br-29" target="1xE6ixHo9524VgZTY6br-10">
                    <mxGeometry relative="1" as="geometry">
                        <Array as="points">
                            <mxPoint x="1340" y="600"/>
                        </Array>
                    </mxGeometry>
                </mxCell>
                <mxCell id="1xE6ixHo9524VgZTY6br-28" style="edgeStyle=none;curved=1;html=1;exitX=0.25;exitY=0;exitDx=0;exitDy=0;entryX=0.75;entryY=1;entryDx=0;entryDy=0;dashed=1;" edge="1" parent="VrsPPtuVAQyJl5yCclh0-1" source="1xE6ixHo9524VgZTY6br-29" target="1xE6ixHo9524VgZTY6br-14">
                    <mxGeometry relative="1" as="geometry">
                        <Array as="points">
                            <mxPoint x="1395" y="470"/>
                        </Array>
                    </mxGeometry>
                </mxCell>
                <mxCell id="1xE6ixHo9524VgZTY6br-29" value="&lt;font style=&quot;font-size: 14px&quot;&gt;GetBestMove&lt;/font&gt;" style="rounded=0;whiteSpace=wrap;html=1;" vertex="1" parent="VrsPPtuVAQyJl5yCclh0-1">
                    <mxGeometry x="1420" y="565" width="100" height="40" as="geometry"/>
                </mxCell>
                <mxCell id="1xE6ixHo9524VgZTY6br-30" value="" style="endArrow=classic;html=1;entryX=0;entryY=0.75;entryDx=0;entryDy=0;" edge="1" parent="VrsPPtuVAQyJl5yCclh0-1" source="1xE6ixHo9524VgZTY6br-0" target="1xE6ixHo9524VgZTY6br-8">
                    <mxGeometry width="50" height="50" relative="1" as="geometry">
                        <mxPoint x="1280" y="620" as="sourcePoint"/>
                        <mxPoint x="1330" y="570" as="targetPoint"/>
                    </mxGeometry>
                </mxCell>
                <mxCell id="1xE6ixHo9524VgZTY6br-31" value="&lt;span style=&quot;font-size: 16px&quot;&gt;按键&lt;/span&gt;" style="text;html=1;strokeColor=none;fillColor=none;align=center;verticalAlign=middle;whiteSpace=wrap;rounded=0;" vertex="1" parent="VrsPPtuVAQyJl5yCclh0-1">
                    <mxGeometry x="990" y="520" width="40" height="20" as="geometry"/>
                </mxCell>
                <mxCell id="1xE6ixHo9524VgZTY6br-32" value="&lt;span style=&quot;font-size: 16px&quot;&gt;操作&lt;/span&gt;" style="text;html=1;strokeColor=none;fillColor=none;align=center;verticalAlign=middle;whiteSpace=wrap;rounded=0;" vertex="1" parent="VrsPPtuVAQyJl5yCclh0-1">
                    <mxGeometry x="1400" y="525" width="50" height="30" as="geometry"/>
                </mxCell>
                <mxCell id="1xE6ixHo9524VgZTY6br-33" value="&lt;span style=&quot;font-size: 16px&quot;&gt;操作&lt;/span&gt;" style="text;html=1;strokeColor=none;fillColor=none;align=center;verticalAlign=middle;whiteSpace=wrap;rounded=0;" vertex="1" parent="VrsPPtuVAQyJl5yCclh0-1">
                    <mxGeometry x="1360" y="585" width="50" height="30" as="geometry"/>
                </mxCell>
                <mxCell id="1xE6ixHo9524VgZTY6br-34" value="&lt;span style=&quot;font-size: 16px&quot;&gt;当前情况&lt;/span&gt;" style="text;html=1;strokeColor=none;fillColor=none;align=center;verticalAlign=middle;whiteSpace=wrap;rounded=0;" vertex="1" parent="VrsPPtuVAQyJl5yCclh0-1">
                    <mxGeometry x="1330" y="540" width="70" height="30" as="geometry"/>
                </mxCell>
                <mxCell id="1xE6ixHo9524VgZTY6br-35" value="&lt;font style=&quot;font-size: 18px&quot;&gt;showALL&lt;/font&gt;" style="rounded=0;whiteSpace=wrap;html=1;" vertex="1" parent="VrsPPtuVAQyJl5yCclh0-1">
                    <mxGeometry x="1240" y="890" width="90" height="40" as="geometry"/>
                </mxCell>
                <mxCell id="1xE6ixHo9524VgZTY6br-36" style="edgeStyle=none;curved=1;html=1;exitX=0.5;exitY=1;exitDx=0;exitDy=0;" edge="1" parent="VrsPPtuVAQyJl5yCclh0-1" source="1xE6ixHo9524VgZTY6br-37" target="1xE6ixHo9524VgZTY6br-35">
                    <mxGeometry relative="1" as="geometry"/>
                </mxCell>
                <mxCell id="1xE6ixHo9524VgZTY6br-37" value="&lt;font style=&quot;font-size: 18px&quot;&gt;animate&lt;/font&gt;" style="rounded=0;whiteSpace=wrap;html=1;" vertex="1" parent="VrsPPtuVAQyJl5yCclh0-1">
                    <mxGeometry x="1345" y="767.5" width="80" height="40" as="geometry"/>
                </mxCell>
                <mxCell id="1xE6ixHo9524VgZTY6br-38" value="&lt;span style=&quot;font-size: 16px&quot;&gt;显示所有&lt;/span&gt;" style="text;html=1;strokeColor=none;fillColor=none;align=center;verticalAlign=middle;whiteSpace=wrap;rounded=0;" vertex="1" parent="VrsPPtuVAQyJl5yCclh0-1">
                    <mxGeometry x="1340.5" y="900" width="89" height="20" as="geometry"/>
                </mxCell>
            </root>
        </mxGraphModel>
    </diagram>
</mxfile>